<?xml version="1.0" encoding="UTF-8" standalone="no"?>
<svg width="516px" height="255px" viewBox="0 0 516 255" version="1.1" xmlns="http://www.w3.org/2000/svg" xmlns:xlink="http://www.w3.org/1999/xlink">
    <defs>
        <path id="path-1" d="M1.31362622,97.654227 C0.43474026,84.3035609 -0.409659091,60.240403 10.5936587,34.6252549 L10.5936587,34.6252549 C21.5948864,9.0090625 36.8337865,1.63032072 51.6097301,0.638133224 L51.6097301,0.638133224 C62.8899858,-0.120106908 68.7652496,7.0246875 73.0165077,12.8180181 L73.0165077,12.8180181 C77.2646307,18.6113487 87.0023945,18.3481579 89.2482041,34.2586678 L89.2482041,34.2586678 C91.499239,50.170222 84.5402597,66.7167763 68.6053571,85.2602385 L68.6053571,85.2602385 C52.6673194,103.800567 6.82939326,119.059367 4.49475446,121.783183 L4.49475446,121.783183 C4.49475446,121.783183 2.19460227,111.003849 1.31362622,97.654227"></path>
        <linearGradient x1="-6.54577507%" y1="54.5573944%" x2="102.611967%" y2="40.9331635%" id="linearGradient-3">
            <stop stop-color="#89C442" offset="0%"></stop>
            <stop stop-color="#74B844" offset="100%"></stop>
        </linearGradient>
        <path id="path-4" d="M66.1818892,0.0887746711 L69.3462967,3.62409539 L0.697047484,105.900872 L66.1818892,0.0887746711 L66.1818892,0.0887746711 Z"></path>
        <linearGradient x1="-11.4247222%" y1="56.5340085%" x2="110.441458%" y2="43.0680396%" id="linearGradient-6">
            <stop stop-color="#74B844" offset="0%"></stop>
            <stop stop-color="#4A9634" offset="100%"></stop>
        </linearGradient>
        <linearGradient x1="108.218685%" y1="58.4668423%" x2="-3.58152927%" y2="34.2097077%" id="linearGradient-7">
            <stop stop-color="#C1EA71" offset="0%"></stop>
            <stop stop-color="#ACDA55" offset="100%"></stop>
        </linearGradient>
        <linearGradient x1="128.449691%" y1="61.4839345%" x2="-26.0780905%" y2="37.98281%" id="linearGradient-8">
            <stop stop-color="#ACDA55" offset="0%"></stop>
            <stop stop-color="#89C442" offset="100%"></stop>
        </linearGradient>
    </defs>
    <g id="Page-1" stroke="none" stroke-width="1" fill="none" fill-rule="evenodd">
        <g id="Angular-Leaflet" transform="translate(0.000000, 1.000000)">
            <g id="Leaflet">
                <g id="layer1">
                    <g id="g50" transform="translate(304.062789, 161.447330) scale(1, -1) translate(-304.062789, -161.447330) translate(259.125694, 100.349468)">
                        <g id="g52-Clipped">
                            <mask id="mask-2" fill="white">
                                <use xlink:href="#path-1"></use>
                            </mask>
                            <g id="path56"></g>
                            <g id="g52" mask="url(#mask-2)" fill="url(#linearGradient-3)">
                                <g id="g58">
                                    <g id="g60">
                                        <path d="M1.31362622,97.654227 C0.43474026,84.3035609 -0.409659091,60.240403 10.5936587,34.6252549 L10.5936587,34.6252549 C21.5948864,9.0090625 36.8337865,1.63032072 51.6097301,0.638133224 L51.6097301,0.638133224 C62.8899858,-0.120106908 68.7652496,7.0246875 73.0165077,12.8180181 L73.0165077,12.8180181 C77.2646307,18.6113487 87.0023945,18.3481579 89.2482041,34.2586678 L89.2482041,34.2586678 C91.499239,50.170222 84.5402597,66.7167763 68.6053571,85.2602385 L68.6053571,85.2602385 C52.6673194,103.800567 6.82939326,119.059367 4.49475446,121.783183 L4.49475446,121.783183 C4.49475446,121.783183 2.19460227,111.003849 1.31362622,97.654227" id="path68"></path>
                                    </g>
                                </g>
                            </g>
                        </g>
                    </g>
                    <g id="g70" transform="translate(299.360069, 157.791902) scale(1, -1) translate(-299.360069, -157.791902) translate(264.350938, 104.527099)">
                        <g id="g72-Clipped">
                            <mask id="mask-5" fill="white">
                                <use xlink:href="#path-4"></use>
                            </mask>
                            <g id="path76"></g>
                            <g id="g72" mask="url(#mask-5)" fill="url(#linearGradient-6)">
                                <g id="g78">
                                    <g id="g80">
                                        <path d="M66.1818892,0.0887746711 L69.3462967,3.62409539 L0.697047484,105.900872 L66.1818892,0.0887746711 L66.1818892,0.0887746711 Z" id="path88"></path>
                                    </g>
                                </g>
                            </g>
                        </g>
                    </g>
                    <g id="g90" transform="translate(257.371636, 199.250784) scale(1, -1) translate(-257.371636, -199.250784) translate(0.371636, 145.250784)" fill="#3C3C3B">
                        <g id="g92-Clipped" transform="translate(0.000000, 0.000000)">
                            <g id="g92" transform="translate(0.627029, 0.417763)">
                                <g id="g98" transform="translate(0.946083, 0.299850)">
                                    <path d="M0.645840097,9.75163651 C18.9550933,19.5011842 41.7622362,23.2600082 60.3243912,32.6711678 C65.8924107,30.1698109 68.3681311,33.7803289 74.3060978,33.4513405 C76.4620333,31.5076974 71.5962865,28.915477 77.4140726,29.312352 C90.639164,27.5629688 103.512074,30.0204605 116.51248,31.1369326 C130.221429,32.3129359 143.845728,31.0022039 157.295505,31.7949095 C161.596926,32.0507895 168.211039,37.9892928 173.477039,35.0346628 C175.85975,30.7254359 165.709192,30.3504934 168.432589,25.5879934 C195.351999,19.2661924 262.689712,-7.5009375 274.208239,21.6087993 C274.364996,19.8395724 272.197565,16.3261842 275.375558,16.822278 C298.078196,26.9801891 336.648853,48.8970888 343.44167,54.6413322 C350.908543,60.954778 360.860542,60.7563405 370.612936,62.9965954 C388.199016,67.0374095 406.94928,71.1607319 422.171459,80.0079112 C431.578987,73.4834951 451.265615,70.2322533 461.7903,72.5174178 C472.780032,74.901801 489.819552,93.1214967 498.940737,99.5696711 C502.523164,102.105493 507.777668,107.021521 511.625538,104.231908 C509.037997,102.454326 512.090584,97.2604852 508.909456,98.1503207 C507.249919,101.323232 503.943385,97.6636266 501.528277,98.2766941 C492.345434,90.7496464 482.799959,83.6978043 473.442593,76.4005263 C469.07429,73.7268421 477.659365,70.9466283 472.536536,70.0609704 C448.353064,65.2608717 411.528683,77.2955839 396.283513,60.5944572 C372.129302,52.336324 349.280357,50.2401974 325.471013,37.4106908 C311.79446,30.0413487 295.053825,16.6301069 280.813991,9.57930921 C278.402019,8.38346217 274.864529,7.96152138 272.011546,6.21213816 C268.538849,4.08154605 267.689225,1.40577303 264.763088,0.774950658 C257.468649,-0.795838816 242.395911,3.01102796 232.913139,4.38755757 C201.268019,8.98608553 167.47846,21.8772122 137.619328,23.5085773 C125.812368,24.1540214 111.870373,22.2855757 98.5198762,21.6860855 C70.1457589,20.4098191 52.3976968,19.7330428 29.6459416,12.0900658 C20.342918,8.96310855 6.0320211,0.673643092 1.13686838e-13,5.22203947 C0.215280032,6.73120888 0.429515016,8.2414227 0.645840097,9.75163651 Z" id="path100"></path>
                                </g>
                            </g>
                        </g>
                    </g>
                    <g id="g102" transform="translate(389.234258, 108.182527) scale(1, -1) translate(-389.234258, -108.182527) translate(318.693470, 0.086310)" fill="url(#linearGradient-7)">
                        <g id="g104">
                            <g id="g110">
                                <g id="g112">
                                    <path d="M24.0037236,138.413289 C2.19042208,103.253298 -4.03388799,75.5681332 3.87608563,49.5456661 L3.87608563,49.5456661 C11.7839692,23.523199 26.8995536,24.6950247 35.5149351,16.1152138 L35.5149351,16.1152138 C44.1324067,7.53122533 55.8223214,-2.88569901 74.4942066,1.31908717 L74.4942066,1.31908717 C98.945211,6.82938322 122.505834,23.1378125 134.22501,68.841102 L134.22501,68.841102 C145.944186,114.54648 138.259943,154.569235 133.306412,176.667862 L133.306412,176.667862 C128.352881,198.765444 121.689651,216.192434 121.689651,216.192434 L121.689651,216.192434 C118.501207,211.028882 45.8191153,173.573281 24.0037236,138.413289" id="path120"></path>
                                </g>
                            </g>
                        </g>
                    </g>
                    <g id="g122" transform="translate(395.191035, 104.944863) scale(1, -1) translate(-395.191035, -104.944863) translate(350.044931, 7.188284)" fill="url(#linearGradient-8)">
                        <g id="g124">
                            <g id="g130">
                                <g id="g132">
                                    <path d="M0.963534903,5.97087993 L6.13757102,0.779128289 L89.1008523,194.896957 L0.963534903,5.97087993 L0.963534903,5.97087993 Z" id="path140"></path>
                                </g>
                            </g>
                        </g>
                    </g>
                </g>
            </g>
            <g id="Angular" transform="translate(4.000000, 57.000000)">
                <path d="M58.3199461,0.61299435 L0.388131737,20.999435 L9.54285629,96.8958418 L58.3815988,123.737288 L107.471856,96.5322486 L116.623078,20.6386441 L58.3199461,0.61299435 Z" id="Shape" fill="#B3B3B3"></path>
                <path d="M110.844539,25.0248814 L58.1847305,7.068 L58.1847305,117.324316 L102.31615,92.9012203 L110.844539,25.0248814 Z" id="Shape" fill="#A6120D"></path>
                <path d="M6.88898802,25.3485424 L14.7335928,93.2255819 L58.1840299,117.324316 L58.1840299,7.06589831 L6.88898802,25.3485424 Z" id="Shape" fill="#DD1B16"></path>
                <path d="M72.6801198,65.7627345 L58.1847305,72.5407006 L42.9067725,72.5407006 L35.7249341,90.5031864 L22.3666168,90.7504859 L58.1847305,11.0717288 L72.6801198,65.7627345 L72.6801198,65.7627345 Z M71.2789222,62.3502825 L58.2807126,36.6192316 L47.619,61.9075254 L58.1840299,61.9075254 L71.2789222,62.3502825 L71.2789222,62.3502825 Z" id="Shape" fill="#F2F2F2"></path>
                <path d="M58.1840299,11.0717288 L58.280012,36.6192316 L70.3779521,61.9271412 L58.2113533,61.9271412 L58.1840299,72.5245876 L75.007509,72.5407006 L82.8703293,90.7532881 L95.6520539,90.9900791 L58.1840299,11.0717288 Z" id="Shape" fill="#B3B3B3"></path>
            </g>
            <path d="M161.492188,124.613281 L161.492188,116.410156 L182.78125,116.410156 L182.78125,94.9746094 L191.130859,94.9746094 L191.130859,116.410156 L212.419922,116.410156 L212.419922,124.613281 L191.130859,124.613281 L191.130859,146 L182.78125,146 L182.78125,124.613281 L161.492188,124.613281 Z" id="+" fill="#B7B7B7"></path>
        </g>
    </g>
</svg>
